PathFileType	4	(X/Y/Z)	/Users/mathieubourgeois/Desktop/Analyse/Traitement/Sujet_03/Data/Transformed_Sujet_03_velo_100.trc
DataRate	CameraRate	NumFrames	NumMarkers	Units	OrigDataRate	OrigDataStartFrame	OrigNumFrames
120.000000	120.000000	4	36	mm	120.000000	472	1890
Frame#	Time	RFHD			LFHD			RBHD			LBHD			C7			CLAV			RSHO			LSHO			STRN			T10			RBWT			LBWT			RFWT			LFWT			RKNI			LKNI			RKNE			LKNE			LANI			RANI			LANE			RANE			LTOE			RTOE			LHEE			RHEE			RHUM			LHUM			RRAD			LRAD			RWRA			RWRB			LWRA			LWRB			LCAR			RCAR			
		X1	Y1	Z1	X2	Y2	Z2	X3	Y3	Z3	X4	Y4	Z4	X5	Y5	Z5	X6	Y6	Z6	X7	Y7	Z7	X8	Y8	Z8	X9	Y9	Z9	X10	Y10	Z10	X11	Y11	Z11	X12	Y12	Z12	X13	Y13	Z13	X14	Y14	Z14	X15	Y15	Z15	X16	Y16	Z16	X17	Y17	Z17	X18	Y18	Z18	X19	Y19	Z19	X20	Y20	Z20	X21	Y21	Z21	X22	Y22	Z22	X23	Y23	Z23	X24	Y24	Z24	X25	Y25	Z25	X26	Y26	Z26	X27	Y27	Z27	X28	Y28	Z28	X29	Y29	Z29	X30	Y30	Z30	X31	Y31	Z31	X32	Y32	Z32	X33	Y33	Z33	X34	Y34	Z34	X35	Y35	Z35	X36	Y36	Z36	

473	3.933333333333333	159.5220336914062	1545.23193359375	89.58263397216788	144.0814208984375	1536.632202148438	-63.72158432006844	56.33728027343749	1627.069946289062	98.7939453124999	32.7657585144043	1635.754150390625	-48.6057014465333	-104.2997894287109	1555.191528320312	25.08329582214344	-65.03998565673828	1398.712280273438	27.44423294067374	-47.07750701904299	1493.80517578125	197.668716430664	-70.27584075927733	1512.793579101562	-153.9436645507813	-163.8156433105469	1259.929809570312	28.36460113525381	-321.7353515625	1454.8720703125	32.19470596313463	-523.123291015625	1272.571899414062	117.309860229492	-532.221923828125	1273.6953125	-6.575758934021139	-374.6446533203125	1195.243041992188	175.5419769287108	-385.2170104980469	1195.27978515625	-70.23023223876964	-200.6757354736328	695.8947143554688	114.4175567626952	-32.05640792846679	915.2755126953125	-53.84638214111335	-202.5333251953125	743.1813354492188	228.0962371826171	-43.9684257507324	956.58349609375	-164.6997833251954	-205.6072387695312	579.2108154296875	-58.90079498291022	-357.2650756835938	356.2145385742188	115.6080780029296	-221.3401184082031	554.0548095703125	-144.6501464843751	-388.9034729003906	346.6119689941406	203.3051605224609	-39.78263473510741	482.2391662597656	-92.88993072509768	-250.6743469238282	179.2855529785156	145.1827087402343	-295.4122314453125	536.456298828125	-102.5012664794923	-460.9298400878906	352.6180114746094	160.8670806884765	6.44793748855588	1189.699096679688	229.4800415039062	2.295379638671894	1195.537109375	-153.8540649414063	58.01896667480465	1211.5791015625	289.0521850585937	48.37381362915042	1222.922729492188	-217.6592712402345	266.5588684082031	1045.245239257812	211.3577880859375	244.1461944580078	1026.99365234375	289.0367126464844	244.1114349365235	1065.562133789062	-131.8514251708985	214.7563018798828	1034.715698242188	-201.1049346923828	308.6017761230469	1025.094970703125	-229.5928497314453	346.4511108398437	1015.919982910156	302.2556457519531	
474	3.941666666666666	159.3083801269531	1545.132690429688	89.9540252685546	143.6773986816406	1536.661376953125	-63.31052017211922	56.14473724365233	1626.984375	99.35085296630849	32.40052795410157	1635.773193359375	-48.03556060791025	-104.5639801025391	1555.201782226562	25.66604995727528	-65.37034606933594	1398.638549804688	27.87654685974112	-47.55772018432619	1493.649658203125	198.2820892333984	-70.42902374267577	1512.904296875	-153.437973022461	-164.2611083984375	1259.915893554688	28.64826583862295	-322.0318298339844	1454.810302734375	32.23900604248033	-523.4898071289062	1272.505249023438	117.0839920043944	-532.4054565429688	1273.35302734375	-6.81083154678359	-374.9064636230469	1195.28173828125	175.1550292968749	-385.3626708984375	1194.942138671875	-70.69776916503918	-195.8612823486328	700.4400634765625	114.9733428955077	-33.95646667480468	907.2095336914062	-52.5257644653321	-197.6084899902344	747.1973876953125	228.4401397705077	-46.12122344970701	949.0889282226562	-163.8639831542969	-195.9779815673828	565.3919677734375	-59.93194198608404	-365.9806823730469	365.7690124511719	114.9755401611327	-211.2508087158203	539.8500366210938	-145.8086242675782	-397.3022155761719	358.8302307128906	203.0688018798827	-27.91630172729491	471.0383911132812	-93.24772644042972	-262.5758056640625	188.8572845458984	145.643569946289	-284.0008239746094	520.3267822265625	-104.4215545654297	-469.3086242675781	366.7983093261719	160.2895202636718	6.235227108001681	1189.52392578125	229.5412597656249	2.128469944000263	1195.677978515625	-153.6683502197266	57.74579620361325	1211.383056640625	289.2307739257812	48.28761672973636	1223.168090820312	-217.1985931396485	266.482666015625	1045.303833007812	211.315444946289	244.0932006835937	1027.048217773438	289.0165100097656	243.998764038086	1065.5546875	-131.8346710205078	214.5669555664063	1034.837158203125	-201.1045837402344	308.4359130859375	1025.178100585938	-229.6633453369141	346.4056701660156	1016.003967285156	302.1759948730469	
475	3.95	158.9895782470703	1545.023193359375	90.46904754638663	143.1998138427734	1536.699340820312	-62.83418655395516	55.83271026611327	1626.863891601562	100.0463485717772	31.93586349487305	1635.779052734375	-47.25646591186533	-104.9147872924805	1555.13916015625	26.31558609008778	-65.80192565917969	1398.521362304688	28.50963020324698	-48.09984588623049	1493.447021484375	198.8894958496093	-70.64053344726561	1513.041381835938	-152.7776336669923	-164.7534484863281	1259.802856445312	29.01152801513662	-322.4185485839844	1454.619506835938	32.32805252075182	-523.8980102539062	1272.321411132812	116.7450866699217	-532.5972900390625	1272.824829101562	-7.132287025451803	-375.2272644042969	1195.24951171875	174.8259887695311	-385.4670104980469	1194.397338867188	-71.15782165527355	-190.4024047851562	705.5379638671875	115.6327743530273	-36.32400512695312	897.48388671875	-51.79291152954108	-192.0516967773438	751.8009643554688	228.853042602539	-47.9352226257324	939.9468994140625	-162.9377593994141	-186.3059844970703	551.0449829101562	-61.45720672607428	-372.1755981445312	379.8276977539062	115.7167587280273	-201.8382873535156	524.7680053710938	-147.183090209961	-404.5981750488281	372.0024719238281	203.3161621093749	-17.26308822631835	458.5410766601562	-93.41353607177737	-273.2799987792969	200.2216491699219	146.0435638427734	-274.272705078125	503.5498046875	-106.2861633300782	-476.6430969238281	381.6625366210938	160.4059295654296	5.989505767822237	1189.339111328125	229.661636352539	1.981477141380329	1195.906982421875	-153.326141357422	57.46025848388668	1211.170654296875	289.4427185058593	48.21754074096683	1223.45556640625	-216.7232360839845	266.3560485839844	1045.413208007812	211.3102874755859	244.0259399414062	1027.0830078125	289.0234069824219	243.8753204345703	1065.55615234375	-131.7860412597657	214.3583984375	1034.950317382812	-201.0139617919922	308.2684936523438	1025.273559570312	-229.6851501464844	346.3287048339843	1016.098815917969	302.123291015625	
476	3.958333333333333	158.6432342529297	1544.909301757812	91.0684051513671	142.6895599365234	1536.763916015625	-62.14789962768563	55.47623825073241	1626.736450195312	100.8613128662108	31.43257522583009	1635.804565429688	-46.44113540649423	-105.3730545043945	1555.047119140625	27.12832069396962	-66.12436676025391	1398.369873046875	29.13108444213858	-48.67799758911135	1493.255859375	199.5712127685546	-70.90101623535155	1513.180541992188	-152.0005035400391	-165.1006622314453	1259.676025390625	29.3335018157958	-322.8582153320312	1454.330322265625	32.44028091430651	-524.3446655273438	1271.994262695312	116.3343658447264	-532.7445068359375	1272.186767578125	-7.533796787262106	-375.6087341308594	1195.171630859375	174.560821533203	-385.4397583007812	1193.526245117188	-71.61607360839855	-184.6855010986328	711.1539916992188	116.3394393920898	-39.47792816162109	886.474609375	-50.98812484741217	-185.8251647949219	757.079345703125	229.3405151367187	-51.20581817626951	929.736328125	-162.1077728271485	-180.3805236816406	534.6697387695312	-62.0754127502442	-378.2243041992188	393.240478515625	116.4262695312499	-193.2127532958984	508.9761047363281	-148.6742553710938	-410.698486328125	386.4964904785156	204.0208282470702	-7.337204933166492	444.7401123046875	-93.64218902587893	-282.949462890625	212.1064758300781	146.524185180664	-266.2318115234375	486.5540771484375	-108.4073944091797	-483.6800537109375	397.6741943359375	161.4568481445312	5.683914661407442	1189.144653320312	229.9019622802734	1.883750319480915	1196.244262695312	-152.7684631347657	57.09437561035153	1210.949462890625	289.7419738769531	48.15235137939456	1223.8173828125	-216.0782470703126	266.2007141113281	1045.519775390625	211.3399810791015	243.8947601318359	1027.115478515625	289.0326538085938	243.7689971923828	1065.554931640625	-131.6731719970703	214.1954803466797	1035.0869140625	-200.9627685546875	308.1355590820312	1025.412475585938	-229.68408203125	346.2140808105468	1016.176879882812	302.1068725585938	
